<?xml version="1.0" encoding="UTF-8"?>
<svg version="1.1" xmlns="http://www.w3.org/2000/svg" width="500" height="500">
<path d="M0 0 C1.26972656 0.22558594 2.53945313 0.45117188 3.84765625 0.68359375 C22.84594735 4.16104724 42.46733738 11.24555261 58 23 C58 23.66 58 24.32 58 25 C58.66 25 59.32 25 60 25 C60 25.66 60 26.32 60 27 C60.66 27 61.32 27 62 27 C62 27.66 62 28.32 62 29 C62.66 29 63.32 29 64 29 C64 29.66 64 30.32 64 31 C64.66 31 65.32 31 66 31 C68 34 68 34 68 37 C66.824375 37.061875 65.64875 37.12375 64.4375 37.1875 C63.77621094 37.22230469 63.11492187 37.25710937 62.43359375 37.29296875 C55.93830465 36.51103186 50.62416429 32.62747126 45.375 29 C44.09185646 28.12395823 42.8080168 27.2489351 41.5234375 26.375 C40.92370117 25.96636719 40.32396484 25.55773437 39.70605469 25.13671875 C37.51670247 23.67798608 35.27305281 22.32377022 33 21 C32.67 21.33 32.34 21.66 32 22 C32.42152344 22.48210937 32.84304688 22.96421875 33.27734375 23.4609375 C33.82519531 24.09257812 34.37304688 24.72421875 34.9375 25.375 C35.75541016 26.31472656 35.75541016 26.31472656 36.58984375 27.2734375 C38.64825877 29.79371296 38.99879627 30.98936705 39.375 34.3125 C39 38 39 38 37.0625 40.875 C32.98982189 43.70093991 29.94841773 44.65516434 25 44 C22.15664278 42.7684547 19.59696973 41.28305414 16.94140625 39.6875 C-12.3421793 22.8873553 -48.09712282 25.19947688 -80 31 C-72.08 31.33 -64.16 31.66 -56 32 C-57 35 -57 35 -58.67407227 36.07495117 C-59.38104248 36.39439697 -60.0880127 36.71384277 -60.81640625 37.04296875 C-61.58017578 37.39423828 -62.34394531 37.74550781 -63.13085938 38.10742188 C-63.93330078 38.46384766 -64.73574219 38.82027344 -65.5625 39.1875 C-66.77196289 39.73954102 -66.77196289 39.73954102 -68.00585938 40.30273438 C-69.99986298 41.21124489 -71.99776958 42.10980336 -74 43 C-72.92621094 42.72285156 -71.85242188 42.44570312 -70.74609375 42.16015625 C-69.30994471 41.79407904 -67.87374401 41.42820442 -66.4375 41.0625 C-65.38079102 40.78889648 -65.38079102 40.78889648 -64.30273438 40.50976562 C-59.89720939 39.39315791 -55.54427342 38.34426314 -51 38 C-49.0625 40.1875 -49.0625 40.1875 -47 43 C-40.74733562 46.96478719 -35.37262628 48.14178127 -28 48 C-28.55429687 47.81824219 -29.10859375 47.63648438 -29.6796875 47.44921875 C-30.76636719 47.07216797 -30.76636719 47.07216797 -31.875 46.6875 C-32.59429687 46.44386719 -33.31359375 46.20023438 -34.0546875 45.94921875 C-36 45 -36 45 -38 42 C-38.25 38.9375 -38.25 38.9375 -38 36 C-35.50994323 33.50994323 -34.62529268 33.70296234 -31.1875 33.6875 C-25.96271181 33.81475129 -23.27554398 34.92377374 -19.39453125 38.46484375 C-15.32359045 42.14037308 -12.4048879 43.89696165 -7 45 C-7 45.66 -7 46.32 -7 47 C-11.62 49.31 -16.24 51.62 -21 54 C-19.63875 53.566875 -18.2775 53.13375 -16.875 52.6875 C-2.76460718 48.45839079 10.34624063 46.8147699 25 47 C25.33 47.99 25.66 48.98 26 50 C25.18015625 50.45890625 24.3603125 50.9178125 23.515625 51.390625 C22.43796875 52.00421875 21.3603125 52.6178125 20.25 53.25 C19.18265625 53.85328125 18.1153125 54.4565625 17.015625 55.078125 C14.25243227 56.83912347 12.27850269 58.68044321 10 61 C9.34 61 8.68 61 8 61 C8 61.66 8 62.32 8 63 C7.34 63 6.68 63 6 63 C5.65195312 63.78503906 5.65195312 63.78503906 5.296875 64.5859375 C3.56581396 67.80821378 1.40763626 70.68182815 -0.75 73.625 C-8.37346504 84.21995498 -13.92372603 94.96856224 -19.08789062 106.93066406 C-20.26087292 109.59185194 -21.53969055 112.19787336 -22.8125 114.8125 C-32.79496893 136.72687623 -30.78481971 164.07109118 -23.21875 186.37890625 C-22.03361218 189.90013305 -20.99473358 193.42172228 -20 197 C-21.98 197.99 -21.98 197.99 -24 199 C-24 199.66 -24 200.32 -24 201 C-24.66 201 -25.32 201 -26 201 C-26 201.66 -26 202.32 -26 203 C-26.66 203 -27.32 203 -28 203 C-28.2475 203.825 -28.495 204.65 -28.75 205.5 C-29.6764127 208.09395556 -30.58825554 210.17645024 -31.875 212.5625 C-37.32199592 223.45649183 -38.75952628 234.42473292 -39.96118164 246.41772461 C-40.06938232 247.46710205 -40.17758301 248.51647949 -40.2890625 249.59765625 C-40.37881348 250.54133057 -40.46856445 251.48500488 -40.56103516 252.45727539 C-40.99834445 254.99041014 -41.72580562 256.78334452 -43 259 C-64.98566074 227.36901713 -63.73658821 182.51123695 -60 146 C-60.48080596 148.99974538 -60.95968682 151.99977769 -61.4375 155 C-61.63956055 156.25876953 -61.63956055 156.25876953 -61.84570312 157.54296875 C-62.24048341 160.0271959 -62.62090767 162.51333785 -63 165 C-63.19335938 166.20914063 -63.38671875 167.41828125 -63.5859375 168.6640625 C-64.05470371 172.51267657 -64.07323665 176.33619615 -64.10546875 180.2109375 C-64.12036604 181.55208419 -64.1353414 182.89323001 -64.15039062 184.234375 C-64.17314818 186.30359969 -64.18752353 188.37109697 -64.17504883 190.44042969 C-64.13318037 199.95022869 -65.44766138 206.17431287 -71 214 C-77.27576094 227.24882866 -79.95626013 241.75020821 -83 256 C-86.69771361 254.7674288 -87.19875591 253.24343451 -88.90551758 249.88598633 C-89.24607178 249.18111084 -89.58662598 248.47623535 -89.9375 247.75 C-90.46863403 246.65691528 -90.46863403 246.65691528 -91.01049805 245.54174805 C-107.82518876 210.11120762 -101.67196422 169.77403827 -88.96533203 134.09472656 C-85.6402339 125.25344296 -81.86389141 116.61641418 -78 108 C-81.71907207 113.61588598 -84.72125795 119.34170139 -87.4375 125.5 C-87.82655518 126.3772876 -88.21561035 127.2545752 -88.61645508 128.15844727 C-90.90759855 133.37808435 -93.14288313 138.615998 -95.1875 143.9375 C-95.42911865 144.56197021 -95.6707373 145.18644043 -95.91967773 145.82983398 C-97.32882837 149.64946225 -98.35373448 153.4320109 -99.20703125 157.4140625 C-102.56746172 172.51707679 -102.56746172 172.51707679 -107.0703125 175.57421875 C-110.625 177.25 -110.625 177.25 -114.34375 178.625 C-127.00153116 183.3851912 -139.97666107 196.45441161 -147.6953125 207.41796875 C-148.34113281 208.20107422 -148.34113281 208.20107422 -149 209 C-149.66 209 -150.32 209 -151 209 C-151.24621094 209.70769531 -151.49242187 210.41539062 -151.74609375 211.14453125 C-153.16098612 214.36660701 -154.9497531 216.87689478 -157.0625 219.6875 C-159.75920044 223.20307017 -159.75920044 223.20307017 -162 227 C-162.66 227 -163.32 227 -164 227 C-164 227.99 -164 228.98 -164 230 C-164.99 229.67 -165.98 229.34 -167 229 C-167.46750626 215.32004768 -167.36670482 203.05930413 -163 190 C-162.79101074 189.35546875 -162.58202148 188.7109375 -162.36669922 188.046875 C-157.92201631 174.51639459 -151.07124951 162.30269428 -144 150 C-143.34 150 -142.68 150 -142 150 C-141.87866699 149.41009277 -141.75733398 148.82018555 -141.63232422 148.21240234 C-140.98927157 145.96246292 -140.20243196 144.51895358 -138.8828125 142.6015625 C-138.44622314 141.96420166 -138.00963379 141.32684082 -137.55981445 140.67016602 C-137.08632568 139.99526123 -136.61283691 139.32035645 -136.125 138.625 C-135.63539795 137.92109131 -135.1457959 137.21718262 -134.64135742 136.49194336 C-127.36882878 126.13797264 -119.51572109 116.3565591 -111 107 C-109.66327154 105.48214993 -108.32978663 103.96143547 -107 102.4375 C-106.4225 101.77621094 -105.845 101.11492187 -105.25 100.43359375 C-104.8375 99.96050781 -104.425 99.48742187 -104 99 C-110.60306726 103.87543547 -116.35950914 109.1289798 -121.5546875 115.49609375 C-122.03164062 115.99238281 -122.50859375 116.48867187 -123 117 C-123.66 117 -124.32 117 -125 117 C-125.2578125 117.56203125 -125.515625 118.1240625 -125.78125 118.703125 C-127.14169777 121.26704579 -128.72788962 123.45226365 -130.5 125.75 C-131.1084375 126.54921875 -131.716875 127.3484375 -132.34375 128.171875 C-132.8903125 128.77515625 -133.436875 129.3784375 -134 130 C-134.66 130 -135.32 130 -136 130 C-136.22558594 130.67675781 -136.45117188 131.35351562 -136.68359375 132.05078125 C-138.3610002 135.808769 -140.62533832 138.88854141 -143.0625 142.1875 C-146.28371363 146.43524864 -146.28371363 146.43524864 -149 151 C-149.66 151 -150.32 151 -151 151 C-151.36544922 151.96292969 -151.36544922 151.96292969 -151.73828125 152.9453125 C-153 155 -153 155 -154.85546875 155.6171875 C-156.00982422 155.74480469 -156.00982422 155.74480469 -157.1875 155.875 C-168.55434398 157.74757256 -179.13690458 163.25555981 -189 169 C-190.88202116 170.09239054 -192.76504726 171.18294803 -194.65014648 172.27001953 C-195.90515552 172.99517859 -197.15738531 173.72517345 -198.40649414 174.46044922 C-202.77851238 177 -202.77851238 177 -205 177 C-205 177.66 -205 178.32 -205 179 C-211.625 183 -211.625 183 -215 183 C-213.66407659 177.6974117 -211.78244118 173.1779478 -209.1875 168.375 C-208.60307129 167.28626587 -208.60307129 167.28626587 -208.00683594 166.17553711 C-200.74229229 152.85204894 -192.63711635 140.02983708 -183.8125 127.6875 C-183.25981445 126.91027588 -182.70712891 126.13305176 -182.13769531 125.33227539 C-181.62432617 124.6283667 -181.11095703 123.92445801 -180.58203125 123.19921875 C-180.13061768 122.57877686 -179.6792041 121.95833496 -179.21411133 121.3190918 C-178.81345459 120.8837915 -178.41279785 120.44849121 -178 120 C-177.34 120 -176.68 120 -176 120 C-175.34 118.35 -174.68 116.7 -174 115 C-173.34 115 -172.68 115 -172 115 C-172 114.34 -172 113.68 -172 113 C-171.34 113 -170.68 113 -170 113 C-169.7421875 112.43796875 -169.484375 111.8759375 -169.21875 111.296875 C-167.85830223 108.73295421 -166.27211038 106.54773635 -164.5 104.25 C-163.8915625 103.45078125 -163.283125 102.6515625 -162.65625 101.828125 C-162.1096875 101.22484375 -161.563125 100.6215625 -161 100 C-160.34 100 -159.68 100 -159 100 C-159 99.34 -159 98.68 -159 98 C-158.34 98 -157.68 98 -157 98 C-157 97.34 -157 96.68 -157 96 C-156.34 96 -155.68 96 -155 96 C-155 95.34 -155 94.68 -155 94 C-154.34 94 -153.68 94 -153 94 C-152.61328125 93.12601563 -152.61328125 93.12601563 -152.21875 92.234375 C-150.90165983 89.8197097 -149.44911616 88.18259823 -147.5 86.25 C-146.8915625 85.63640625 -146.283125 85.0228125 -145.65625 84.390625 C-144 83 -144 83 -142 83 C-142 82.34 -142 81.68 -142 81 C-141.34 81 -140.68 81 -140 81 C-140 80.34 -140 79.68 -140 79 C-139.34 79 -138.68 79 -138 79 C-137.505 77.515 -137.505 77.515 -137 76 C-135.70644173 74.62804426 -134.37701298 73.28817344 -133 72 C-133.75925781 72.49371094 -134.51851563 72.98742187 -135.30078125 73.49609375 C-136.29464844 74.13675781 -137.28851563 74.77742188 -138.3125 75.4375 C-139.29863281 76.07558594 -140.28476563 76.71367187 -141.30078125 77.37109375 C-144 79 -144 79 -147 80 C-147 80.66 -147 81.32 -147 82 C-148.64453125 83.47265625 -148.64453125 83.47265625 -150.8125 85.0625 C-151.52019531 85.58972656 -152.22789062 86.11695313 -152.95703125 86.66015625 C-155 88 -155 88 -158 89 C-158 89.66 -158 90.32 -158 91 C-158.66 91 -159.32 91 -160 91 C-160 91.66 -160 92.32 -160 93 C-161.50390625 94.4453125 -161.50390625 94.4453125 -163.5625 96.125 C-167.31756613 99.29312862 -170.45265657 102.69430236 -173.5546875 106.49609375 C-174.03164062 106.99238281 -174.50859375 107.48867187 -175 108 C-175.66 108 -176.32 108 -177 108 C-177 108.66 -177 109.32 -177 110 C-177.66 110 -178.32 110 -179 110 C-179.4021875 110.8971875 -179.4021875 110.8971875 -179.8125 111.8125 C-181.04387664 114.08082539 -181.98854404 115.39265144 -184 117 C-186.1796875 117.30078125 -186.1796875 117.30078125 -188.875 117.3125 C-206.58814297 118.4395067 -223.78830431 126.33546383 -240 133 C-241.05925897 129.75716555 -241.1312669 129.2656592 -239.5234375 126.01171875 C-238.81445312 124.91472656 -238.10546875 123.81773437 -237.375 122.6875 C-237.00616699 122.11298096 -236.63733398 121.53846191 -236.25732422 120.9465332 C-235.18568453 119.28846716 -234.09326502 117.64388754 -233 116 C-232.47921875 115.2059375 -231.9584375 114.411875 -231.421875 113.59375 C-230.34785464 112.01506947 -229.18426866 110.49775154 -228 109 C-227.34 109 -226.68 109 -226 109 C-225.77441406 108.45859375 -225.54882812 107.9171875 -225.31640625 107.359375 C-223.59483021 104.27382033 -221.33104956 101.81868734 -218.9375 99.25 C-218.451604 98.7250293 -217.96570801 98.20005859 -217.46508789 97.65917969 C-213.25896609 93.17100273 -208.9371722 88.68931549 -204 85 C-203.34 85 -202.68 85 -202 85 C-202 84.34 -202 83.68 -202 83 C-201.34 83 -200.68 83 -200 83 C-200 82.34 -200 81.68 -200 81 C-197.9055032 79.36570249 -195.82217909 77.85832766 -193.625 76.375 C-193.02171875 75.95476562 -192.4184375 75.53453125 -191.796875 75.1015625 C-187.26537135 72 -187.26537135 72 -185 72 C-185 71.34 -185 70.68 -185 70 C-182.65625 68.1953125 -182.65625 68.1953125 -179.5 66.125 C-178.4790625 65.44695312 -177.458125 64.76890625 -176.40625 64.0703125 C-173.33609441 62.20427756 -170.26209281 60.59559764 -167.03955078 59.02246094 C-163.67888485 57.33770287 -160.44412474 55.43819679 -157.1875 53.5625 C-150.94193926 50.00103636 -144.63164633 46.79596953 -138 44 C-151.96753648 46.68515878 -164.36088329 51.93810349 -176.89770508 58.4597168 C-181.80545046 61 -181.80545046 61 -184 61 C-184 61.66 -184 62.32 -184 63 C-185.051875 63.5775 -186.10375 64.155 -187.1875 64.75 C-189.65237227 66.13649065 -191.51498153 67.44312364 -193.6875 69.3125 C-196 71 -196 71 -197.85546875 70.72265625 C-200.15637669 69.94730476 -202.37808279 69.04516609 -204.625 68.125 C-215.64722335 64.072712 -227.7358968 62.84378855 -239.3984375 62.2109375 C-241.7186924 62.02280872 -243.76955227 61.64482138 -246 61 C-244.50958227 57.20620942 -242.30937488 55.31656242 -239 53 C-238.34 53 -237.68 53 -237 53 C-237 52.34 -237 51.68 -237 51 C-235.5390625 49.7109375 -235.5390625 49.7109375 -233.625 48.375 C-232.99851562 47.92898437 -232.37203125 47.48296875 -231.7265625 47.0234375 C-230 46 -230 46 -228 46 C-228 45.34 -228 44.68 -228 44 C-219.25443127 37.21929473 -208.70714531 32.24950404 -199 27 C-197.93523437 26.41863281 -196.87046875 25.83726562 -195.7734375 25.23828125 C-188.13880659 21.23167742 -180.20141407 18.4569191 -172.0546875 15.70703125 C-169.05649785 14.67533481 -166.09485912 13.54772771 -163.125 12.4375 C-154.56565793 9.38548317 -145.82742021 7.12657334 -137 5 C-136.25685547 4.82082031 -135.51371094 4.64164063 -134.74804688 4.45703125 C-91.00113371 -5.86832714 -44.22771785 -8.86335937 0 0 Z M-24 55 C-24.33 55.66 -24.66 56.32 -25 57 C-24.01 56.67 -23.02 56.34 -22 56 C-22.66 55.67 -23.32 55.34 -24 55 Z M-59 140 C-58 143 -58 143 -58 143 Z " fill="#0B0A0A" transform="translate(306,120)"/>
<path d="M0 0 C9.77617513 8.55592685 16.79423886 17.7057032 18.02734375 30.96875 C18.1934239 46.69654019 12.67904477 55.30363208 1.87890625 66.35546875 C-0.1391662 68.34957359 -1.91429313 69.75926833 -4.30859375 71.35546875 C-5.29859375 71.02546875 -6.28859375 70.69546875 -7.30859375 70.35546875 C-6.97859375 69.28296875 -6.64859375 68.21046875 -6.30859375 67.10546875 C-4.26482815 58.82748289 -4.28205329 50.92536482 -8.30859375 43.35546875 C-8.63859375 42.36546875 -8.96859375 41.37546875 -9.30859375 40.35546875 C-11.58507287 39.20965299 -11.58507287 39.20965299 -14.30859375 38.35546875 C-15.58863281 37.87787109 -15.58863281 37.87787109 -16.89453125 37.390625 C-24.9404641 34.58469043 -32.93459298 32.84607886 -41.30859375 31.35546875 C-42.21738281 31.16726562 -43.12617188 30.9790625 -44.0625 30.78515625 C-56.7227765 29.10930738 -70.88685596 29.45366935 -83.30859375 32.35546875 C-84.2521875 32.56558594 -85.19578125 32.77570313 -86.16796875 32.9921875 C-93.89645715 35.04444154 -100.97490805 38.37907396 -108.18359375 41.79296875 C-109.17085449 42.25952881 -110.15811523 42.72608887 -111.17529297 43.20678711 C-120.52826239 47.28696921 -120.52826239 47.28696921 -127.30859375 54.35546875 C-119.26876849 53.41106887 -112.48333573 52.10215637 -105.30859375 48.35546875 C-88.53824362 39.61096349 -72.69426623 33.27512193 -53.49609375 33.10546875 C-52.68301758 33.09604248 -51.86994141 33.08661621 -51.03222656 33.0769043 C-46.39906626 33.1022195 -42.66659321 33.5870052 -38.30859375 35.35546875 C-38.30859375 36.01546875 -38.30859375 36.67546875 -38.30859375 37.35546875 C-39.1480957 37.53360107 -39.98759766 37.7117334 -40.85253906 37.89526367 C-80.93385595 45.87526329 -80.93385595 45.87526329 -118.47265625 61.5703125 C-121.97120154 63.06649889 -125.69681284 62.21159459 -129.30859375 61.35546875 C-130.64192708 60.35546875 -131.97526042 59.35546875 -133.30859375 58.35546875 C-135.87973587 58.96688003 -135.87973587 58.96688003 -138.30859375 60.35546875 C-139.07171875 60.72671875 -139.83484375 61.09796875 -140.62109375 61.48046875 C-141.17796875 61.76921875 -141.73484375 62.05796875 -142.30859375 62.35546875 C-140.83933762 57.37546375 -138.72645339 53.09647397 -136.18359375 48.60546875 C-135.78906006 47.90679687 -135.39452637 47.208125 -134.98803711 46.48828125 C-131.65836122 40.72136507 -128.0456944 35.08120944 -123.30859375 30.35546875 C-122.64859375 30.35546875 -121.98859375 30.35546875 -121.30859375 30.35546875 C-121.04046875 29.71609375 -120.77234375 29.07671875 -120.49609375 28.41796875 C-119.30859375 26.35546875 -119.30859375 26.35546875 -116.30859375 25.35546875 C-116.30859375 24.69546875 -116.30859375 24.03546875 -116.30859375 23.35546875 C-114.62890625 21.84765625 -114.62890625 21.84765625 -112.43359375 20.23046875 C-111.71429688 19.69164062 -110.995 19.1528125 -110.25390625 18.59765625 C-108.30859375 17.35546875 -108.30859375 17.35546875 -106.30859375 17.35546875 C-106.30859375 16.69546875 -106.30859375 16.03546875 -106.30859375 15.35546875 C-103.78902632 14.08207393 -101.26800726 12.81170233 -98.74609375 11.54296875 C-98.04162109 11.18654297 -97.33714844 10.83011719 -96.61132812 10.46289062 C-84.25552349 4.25651871 -84.25552349 4.25651871 -78.30859375 3.35546875 C-86.36612521 4.44683468 -94.35955795 5.63378819 -102.30859375 7.35546875 C-101.80147342 3.63658636 -101.1925116 0.62092636 -99.30859375 -2.64453125 C-98.64859375 -2.64453125 -97.98859375 -2.64453125 -97.30859375 -2.64453125 C-97.10234375 -3.18078125 -96.89609375 -3.71703125 -96.68359375 -4.26953125 C-94.78277672 -7.55276066 -92.33218186 -10.33644872 -89.30859375 -12.64453125 C-88.31859375 -12.64453125 -87.32859375 -12.64453125 -86.30859375 -12.64453125 C-86.30859375 -13.30453125 -86.30859375 -13.96453125 -86.30859375 -14.64453125 C-55.46655416 -27.09093809 -26.14245011 -20.66498438 0 0 Z M-71.30859375 -12.64453125 C-68.68544343 -11.33295609 -67.07825939 -11.74803137 -64.18359375 -12.08203125 C-63.27351563 -12.18386719 -62.3634375 -12.28570312 -61.42578125 -12.390625 C-60.37777344 -12.51630859 -60.37777344 -12.51630859 -59.30859375 -12.64453125 C-59.30859375 -11.98453125 -59.30859375 -11.32453125 -59.30859375 -10.64453125 C-55.01859375 -9.98453125 -50.72859375 -9.32453125 -46.30859375 -8.64453125 C-49.56624969 -14.07395781 -50.52651341 -14.81353914 -56.30859375 -16.64453125 C-62.36023739 -17.41474044 -66.21243582 -15.60956859 -71.30859375 -12.64453125 Z M-75.30859375 1.35546875 C-75.30859375 1.68546875 -75.30859375 2.01546875 -75.30859375 2.35546875 C-73.65859375 2.35546875 -72.00859375 2.35546875 -70.30859375 2.35546875 C-70.30859375 2.02546875 -70.30859375 1.69546875 -70.30859375 1.35546875 C-71.95859375 1.35546875 -73.60859375 1.35546875 -75.30859375 1.35546875 Z " fill="#0D0C0C" transform="translate(425.30859375,181.64453125)"/>
<path d="M0 0 C5.22478819 0.12725129 7.91195602 1.23627374 11.79296875 4.77734375 C15.86390955 8.45287308 18.7826121 10.20946165 24.1875 11.3125 C24.1875 11.9725 24.1875 12.6325 24.1875 13.3125 C20.2275 14.9625 16.2675 16.6125 12.1875 18.3125 C11.8575 17.6525 11.5275 16.9925 11.1875 16.3125 C7.69042861 15.23578203 4.15769903 14.3839066 0.60546875 13.5078125 C-2.93748392 12.26879134 -4.55458022 11.2707671 -6.8125 8.3125 C-7.1875 5.1875 -7.1875 5.1875 -6.8125 2.3125 C-4.32244323 -0.17755677 -3.43779268 0.01546234 0 0 Z " fill="#1D1B1D" transform="translate(274.8125,153.6875)"/>
<path d="M0 0 C0.33 0.99 0.66 1.98 1 3 C-0.70704072 4.70704072 -2.41451301 6.41359764 -4.125 8.1171875 C-5.66491603 9.66351984 -7.17983289 11.23470884 -8.6875 12.8125 C-11 15 -11 15 -13.1875 16.0625 C-15.17892157 16.86702161 -15.17892157 16.86702161 -16 19 C-17.25808796 21.51617591 -18.5300397 21.80485792 -21 23 C-21.33 23.99 -21.66 24.98 -22 26 C-22.66 26 -23.32 26 -24 26 C-24 25.34 -24 24.68 -24 24 C-23.34 24 -22.68 24 -22 24 C-22 23.34 -22 22.68 -22 22 C-21.34 22 -20.68 22 -20 22 C-20 21.34 -20 20.68 -20 20 C-19.34 20 -18.68 20 -18 20 C-18 19.34 -18 18.68 -18 18 C-17.34 18 -16.68 18 -16 18 C-15.61328125 17.12601563 -15.61328125 17.12601563 -15.21875 16.234375 C-13.90165983 13.8197097 -12.44911616 12.18259823 -10.5 10.25 C-9.8915625 9.63640625 -9.283125 9.0228125 -8.65625 8.390625 C-7 7 -7 7 -5 7 C-5 6.34 -5 5.68 -5 5 C-4.34 5 -3.68 5 -3 5 C-3 4.34 -3 3.68 -3 3 C-2.34 3 -1.68 3 -1 3 C-0.67 2.01 -0.34 1.02 0 0 Z " fill="#5A5758" transform="translate(169,196)"/>
<path d="M0 0 C0 3 0 3 -2.625 5.91796875 C-3.74249406 7.01550756 -4.86785643 8.10507895 -6 9.1875 C-6.57234375 9.74630859 -7.1446875 10.30511719 -7.734375 10.88085938 C-9.14962788 12.26073093 -10.57397155 13.63126734 -12 15 C-12.66 14.67 -13.32 14.34 -14 14 C-12.625 12 -12.625 12 -11 10 C-10.34 10 -9.68 10 -9 10 C-8.731875 9.360625 -8.46375 8.72125 -8.1875 8.0625 C-7 6 -7 6 -4 5 C-4 4.34 -4 3.68 -4 3 C-2 1.375 -2 1.375 0 0 Z " fill="#4E4C4D" transform="translate(313,202)"/>
<path d="M0 0 C2 1 2 1 4 4 C2.33333333 4.33333333 0.66666667 4.66666667 -1 5 C-2.3303125 5.3403125 -2.3303125 5.3403125 -3.6875 5.6875 C-4.8321875 5.8421875 -4.8321875 5.8421875 -6 6 C-6.66 5.34 -7.32 4.68 -8 4 C-5.32521756 2.3372974 -3.0004856 1.00016187 0 0 Z " fill="#030103" transform="translate(362,160)"/>
<path d="M0 0 C0 3 0 3 -2.25 5.5 C-4.43541108 7.48673735 -6.58854412 9.30304957 -9 11 C-9.66 10.67 -10.32 10.34 -11 10 C-9.54474941 8.51780033 -8.085701 7.03932861 -6.625 5.5625 C-5.81289062 4.73878906 -5.00078125 3.91507813 -4.1640625 3.06640625 C-2 1 -2 1 0 0 Z " fill="#656565" transform="translate(98,209)"/>
<path d="M0 0 C-3.93317269 2.03439967 -6.74468429 3.2179974 -11.1875 2.5625 C-12.445625 2.376875 -13.70375 2.19125 -15 2 C-15 1.67 -15 1.34 -15 1 C-9.91913204 0.15318867 -5.15171623 -0.09038099 0 0 Z " fill="#656264" transform="translate(370,215)"/>
<path d="M0 0 C4.62 0 9.24 0 14 0 C14.33 0.99 14.66 1.98 15 3 C7.575 2.01 7.575 2.01 0 1 C0 0.67 0 0.34 0 0 Z " fill="#898487" transform="translate(317,167)"/>
<path d="M0 0 C0.99 0.33 1.98 0.66 3 1 C1.9024777 3.99324263 1.32317108 4.84610901 -1.625 6.25 C-2.40875 6.4975 -3.1925 6.745 -4 7 C-3.34 6.030625 -2.68 5.06125 -2 4.0625 C0.09113148 1.4700747 0.09113148 1.4700747 0 0 Z " fill="#676666" transform="translate(175,189)"/>
</svg>
